<mxfile host="app.diagrams.net" agent="Mozilla/5.0 (Windows NT 10.0; Win64; x64) AppleWebKit/537.36 (KHTML, like Gecko) Chrome/138.0.0.0 Safari/537.36" version="28.0.9" pages="2">
  <diagram name="url-shortner" id="o5_DG1zj-AsPQallC1qa">
    <mxGraphModel dx="1048" dy="417" grid="1" gridSize="10" guides="1" tooltips="1" connect="1" arrows="1" fold="1" page="1" pageScale="1" pageWidth="850" pageHeight="1100" math="0" shadow="0">
      <root>
        <mxCell id="0" />
        <mxCell id="1" parent="0" />
        <mxCell id="9jcErkdEfAQfmoSE7lLc-3" value="" style="rounded=1;whiteSpace=wrap;html=1;" vertex="1" parent="1">
          <mxGeometry x="69" y="260" width="118" height="50" as="geometry" />
        </mxCell>
        <mxCell id="9jcErkdEfAQfmoSE7lLc-4" value="" style="html=1;verticalLabelPosition=bottom;align=center;labelBackgroundColor=#ffffff;verticalAlign=top;strokeWidth=2;strokeColor=#0080F0;shadow=0;dashed=0;shape=mxgraph.ios7.icons.smartphone;" vertex="1" parent="1">
          <mxGeometry x="88" y="270" width="18" height="30" as="geometry" />
        </mxCell>
        <mxCell id="9jcErkdEfAQfmoSE7lLc-5" value="" style="verticalLabelPosition=bottom;html=1;verticalAlign=top;align=center;strokeColor=none;fillColor=#00BEF2;shape=mxgraph.azure.laptop;pointerEvents=1;" vertex="1" parent="1">
          <mxGeometry x="127" y="270" width="40" height="30" as="geometry" />
        </mxCell>
        <mxCell id="9jcErkdEfAQfmoSE7lLc-6" value="Client" style="text;html=1;align=center;verticalAlign=middle;whiteSpace=wrap;rounded=0;" vertex="1" parent="1">
          <mxGeometry x="54" y="230" width="60" height="30" as="geometry" />
        </mxCell>
        <mxCell id="9jcErkdEfAQfmoSE7lLc-41" style="edgeStyle=orthogonalEdgeStyle;rounded=0;orthogonalLoop=1;jettySize=auto;html=1;exitX=1;exitY=0.25;exitDx=0;exitDy=0;exitPerimeter=0;entryX=0;entryY=0.5;entryDx=0;entryDy=0;" edge="1" parent="1" source="9jcErkdEfAQfmoSE7lLc-44" target="9jcErkdEfAQfmoSE7lLc-32">
          <mxGeometry relative="1" as="geometry" />
        </mxCell>
        <mxCell id="9jcErkdEfAQfmoSE7lLc-42" style="edgeStyle=orthogonalEdgeStyle;rounded=0;orthogonalLoop=1;jettySize=auto;html=1;exitX=1;exitY=0.75;exitDx=0;exitDy=0;exitPerimeter=0;entryX=0;entryY=0.5;entryDx=0;entryDy=0;" edge="1" parent="1" source="9jcErkdEfAQfmoSE7lLc-46" target="9jcErkdEfAQfmoSE7lLc-35">
          <mxGeometry relative="1" as="geometry" />
        </mxCell>
        <mxCell id="9jcErkdEfAQfmoSE7lLc-8" value="" style="sketch=0;points=[[0,0,0],[0.25,0,0],[0.5,0,0],[0.75,0,0],[1,0,0],[0,1,0],[0.25,1,0],[0.5,1,0],[0.75,1,0],[1,1,0],[0,0.25,0],[0,0.5,0],[0,0.75,0],[1,0.25,0],[1,0.5,0],[1,0.75,0]];outlineConnect=0;fontColor=#232F3E;fillColor=#E7157B;strokeColor=#ffffff;dashed=0;verticalLabelPosition=bottom;verticalAlign=top;align=center;html=1;fontSize=12;fontStyle=0;aspect=fixed;shape=mxgraph.aws4.resourceIcon;resIcon=mxgraph.aws4.api_gateway;" vertex="1" parent="1">
          <mxGeometry x="226" y="253" width="64" height="64" as="geometry" />
        </mxCell>
        <mxCell id="9jcErkdEfAQfmoSE7lLc-9" style="edgeStyle=orthogonalEdgeStyle;rounded=0;orthogonalLoop=1;jettySize=auto;html=1;exitX=1;exitY=0.5;exitDx=0;exitDy=0;entryX=0;entryY=0.5;entryDx=0;entryDy=0;entryPerimeter=0;" edge="1" parent="1" source="9jcErkdEfAQfmoSE7lLc-3" target="9jcErkdEfAQfmoSE7lLc-8">
          <mxGeometry relative="1" as="geometry" />
        </mxCell>
        <mxCell id="9jcErkdEfAQfmoSE7lLc-10" value="API GW" style="text;html=1;align=center;verticalAlign=middle;whiteSpace=wrap;rounded=0;" vertex="1" parent="1">
          <mxGeometry x="218" y="220" width="60" height="30" as="geometry" />
        </mxCell>
        <mxCell id="9jcErkdEfAQfmoSE7lLc-11" value="&lt;div style=&quot;&quot;&gt;&lt;span style=&quot;background-color: transparent; color: light-dark(rgb(0, 0, 0), rgb(255, 255, 255));&quot;&gt;Functional Requirement&lt;/span&gt;&lt;/div&gt;&lt;div&gt;1. Convert Long URL to short URL&lt;/div&gt;&lt;div&gt;2. Redirect Short URL to Long URL&lt;/div&gt;" style="text;html=1;align=left;verticalAlign=middle;whiteSpace=wrap;rounded=0;" vertex="1" parent="1">
          <mxGeometry x="350" y="10" width="230" height="90" as="geometry" />
        </mxCell>
        <mxCell id="9jcErkdEfAQfmoSE7lLc-12" value="&lt;div style=&quot;&quot;&gt;&lt;span style=&quot;background-color: transparent; color: light-dark(rgb(0, 0, 0), rgb(255, 255, 255));&quot;&gt;Non - Functional Requirement&lt;/span&gt;&lt;/div&gt;&lt;div&gt;1. Low latency&lt;/div&gt;&lt;div&gt;2. High Availability&lt;/div&gt;" style="text;html=1;align=left;verticalAlign=middle;whiteSpace=wrap;rounded=0;" vertex="1" parent="1">
          <mxGeometry x="600" y="10" width="230" height="90" as="geometry" />
        </mxCell>
        <mxCell id="9jcErkdEfAQfmoSE7lLc-25" style="edgeStyle=orthogonalEdgeStyle;rounded=0;orthogonalLoop=1;jettySize=auto;html=1;exitX=1;exitY=0.75;exitDx=0;exitDy=0;" edge="1" parent="1" source="9jcErkdEfAQfmoSE7lLc-48">
          <mxGeometry relative="1" as="geometry">
            <mxPoint x="490" y="225" as="sourcePoint" />
            <mxPoint x="607" y="265" as="targetPoint" />
          </mxGeometry>
        </mxCell>
        <mxCell id="9jcErkdEfAQfmoSE7lLc-22" value="" style="shape=image;verticalLabelPosition=bottom;labelBackgroundColor=default;verticalAlign=top;aspect=fixed;imageAspect=0;image=data:image/png,iVBORw0KGgoAAAANSUhEUgAAAD4AAABSCAYAAAAM92dlAAAAAXNSR0IArs4c6QAAAARnQU1BAACxjwv8YQUAAAAJcEhZcwAADsMAAA7DAcdvqGQAACXpSURBVHhe5XwHWFRnGq7Z3Ww2Grsxsddo7F0UkN57R6oggghYEMQCgoCgUqwIgj2WGGvsJfbYa2KiRk1MN8UuZYYZxve+3xmwJcG47m7ufe5nfuacM+cv79e//5xJDfx/Sn8pcJ3y76HSHvK8qlUdPHlN7pB/T97/MvSXAZelV0DLJv8eM0AngHX6JsdKU+7VVTb5p1WuvQz9hRIXoBVVcJVjBf5DsuQ3TX/P46ZV+r8M/bU2LmtX1s8/DwnmYfkTTf3EsYb3UAWUJvdKn5ejvw54JeiHim7LcQWbhqpdzqYiRAJHOaXNpiN4AV3Zpwr/y9BfC5xCriinnZdroK2gqusqoKkoZ1OjnGC10qgJWq1InXauJXMEv7aSCS9Bf6mqC+hyNUETiOAopUb/dK8E3928h+s/3cQd1UNF7iJgDTFrtLT3CjbRkpdE/j8F/qzT0mrFdqnQBL5p+34sXLEROQvWIGvBWmTmvY/conWYv3wjtu0/iXulou5klo5MombodOLg/n36S4FrqMLbt+9EWEQ0rJ19YeYwGHY+UbDzHQkrzyg4+o2Cs180BoeNxZwFy3H+88tQk0nlGjX7ix78+/Q/Ay5AdZRWebk4rIe4duUqXn+1Ntq2644W7Xuj6bumaNLJDC06m6B+8x5o1qoHWjTthpat+qHtu2boNsANZo7B6Gvmghs0B2q8DPpo3Bel/7nEK+jEtFot0tMz0LLDADTraEzA5mjQ2Q4121nC0H00fGKyYGQXiu69HdCs7SA0aW+Oph2tyBRz9DB0QnbeIqjoEKvGFODy+SL0PwcuoFWqMkSPjEXzHvaoR1B1O9qiQS8fvNHVE07Rc5C5+gzCJy/CmOQFCI2diaadHNC6hytad7VH1/4uMLfzxskznz4C+381cFmYNJVKRedElaeX7mLsg9eb90XTbjZoQSa06++OhKyViEzKh31ALAo+2IfCdYeQt3of3IJTYOYUhQZNqfrvGGD3R4eUcUWDpL0o/U8lLiSL1NDOxUlt238Ozd/pi9frNYO3byj8/YehR8+BaN78Hfz9n7XRy8AMHXuZorexG1ZsOAZT2xDUeLUZoqInokyl9xVCVUx9EfprgGs0UDOGf/39z+jcqTtq1KiBozs2YtfqIuSnxiMpYjBcTPoo16XVrlUf4cMT0LJ1T3TpZoTSEn0o+38KuNijNInHP9z4Dp3faYVG/3wVpRc2Q33+A5QeKUDJoTzc/CgX17bm4JONs7G5YCo6tWiCHp06YPuWTQxnZRxD+18E/sRYcvjo9KmTP09VC5SmY7vy5SWEBXmh2Rv/wvJJ3lg/xQfFh2ZDfSQPZYfn4XTRKCwYZY+cKG8EOpnA0qg3Nm9Yxf5qAtc8Als15ovQHwOXcSRi8FNJGflXqYJlAvElL+5PniIZ/qtrn2L1wixMH+WNG3vysHKcE3bPicJnm7JwZcd8LJvgiWEDauPggmiMDjRHdlocDu/fyRyfWVyFXuJPtheh6oFXlr0clnUSc2r+UzImAf1yiZNCxQ9+xQeLclGQPBzf7piDI/kjcXldJi6szcStE+/jy205+HTFRNw6kI/ZCcEozErClQtnoFWXsjdr+f8KcBJTYmVA2STQsFTUskSsYLWk7JC82Dy/TyxDf/n6IjYvSMf1LTNRfmoFbu5dgLPLJ6Pk3HqoPlkD9fElKDtUhA05Cfj80A5oy+6zYGHZyjL2vwdcGUsqqHsc+D417A69cokibJ3+y5eiCg2ZWH4PxT+ex/m1GfiaEv5xx2wcmReLL7fORvGpZSg5OB8/rp+Kc2vyoL19AzqqeTlBa2VXphLsfxS4DKMfSouvLp/DoR3v4/rFE6yFi8kQ2SR6OZKF0rHzoBz3f72Es+un4erWLNw9tBDfbc7Fj3sK8OsBevdd2biyOhFHVs+C+ua30oG1uo5S/y95dRmmQkGnwScf70bOxBE4vmstz1W8Lvtj/x5VLVIURiOf2hKoi7/Fxd1z8fW+ebiyPgO682uhu7AJ55Yl4MraSfjs/YnYtjwT5cU3OIJOydOfBPvk8Z+l56u6To2LB7ahYNJwnN2+mgpQrEyiSOvfICXFZL4uNXixMoaOycwNrMmPwclN6bh5pAg3PpqP2/sKcX3DFMbyFBxaNQYXr+6W3ijWqhWnq2zRvTxw6VTVZCmcgodarZyrcfnwdhSMDyXwFbxFgDO0PcfGxSXqd071cU8YJWurIGCdtoLAy1HCWHH+m9OYt2QKZiV749Ot01FydhkesKlPLsW93bn4fEMi1s0PQehIG6zZuQR3Sm/R6dLJsj0CK8CfWA+tv/Loj6kSuEAVZ6EXo+BVc700Iw6qxqUDW1A4PgTndizjOSfmwErSKOP/QZOoX0GmKXvgPJc6ooID6zRyop/v/YOLEJEZiOFpXtj/YQbunVmB7/bMQMkXy/Hg6FwU78zB3jnDsDDTF95hBvCIMMX4GSM45j0aYCnXKSrPkZQxOaR+ah4+H/oTqv60zVRwcUrRQ+fzyf7NmBUXjJPb3uOFYtqmwHoOCRNl55SppT5NFSnLDpoaN25ew+LVuZhYEIHIXD9EzhqM5GleuHZmCX75eAHOv5+Ei6sm4tzisTi+lhJfMQajp7lhVLYvAhMdMWSCC9bsXkK1vwOVthQajqtsRMq0bMLWPwH88S164GxcsF6dOISuDOf2bUJWbBCObaOq07kJ8EoG/zHJ7GIvLEhke5gFKcNQMa7+cAazl6RiYlYEJhYOxdAsVwROd0TYRHMsKIzAg/Pvo/TUShQfW4ov6dEPbEjC3HlBGD7NAcNz3OCVaIYROT6IyRiCg+d3Q6V7gLJyRprKPbhKBM8lApcVVnZQgIuUKBmdisfiQYpxbu86ZIzyw5GtIvGy33j1R7b2JMkNYjP0wDpdKU/Fom8hszAeCblDMTk/ApMWDsGYwgAMm+uBgGQzxE11wt2L61F25gOlnd4xDfNy/BGfYgv38f3hPtkYThMGIGqOB4ameiB2egQV/g51qAQaWXMlvRBwWaNe4BUo+/UbXDq+G6f2foBLRzdgx7JMJIfaYu+qXDws+4Fd6OAqqiok6a90/E2Txai1D3Cz+CusO7AAk+YOQ9LSYZiwJASTlodiZL4n4hb5I3KOKwKmWSMw3QJz80Lw2eH5OEHHNiXbB1PmBSJ+ri/8M60QlGWPwGlWiMh2QORMAi8IQdrCBNzW/kCbL6GGMpuj3KQ9jxRVrxKOZGMVGhW+OnsYnx/ciK9PfohPt+djQ+5IxDh0xvLUYbh+5AOof7qsgBemaXj/Q84kTc6rjku1JSjlPbKg+WunYtzsUCQuGIq4ogBE5XlgzEI/RBf4YEy+D0bOcsOwmY4Eb4XwCUbIyHRFeqYHoqc6I2KqA4LTbOGdYo7g6fYYkmmLEdOdEE2pD2O/+Nnh2HdhK+cuh0qthqqMGibO7jmkAJfbFAcuTohArp3eh+9O78RdDqi+tAk/f7wYcU4dsa8gAT8fW4MvD67FL1fOkMMapT0LWsdwQFnj3sO72H7qQ0wqiEJ8XjBi5nghfJYzhubYI4RAw+Z5IIaSi57mRFu3RXCuDXzG94F/dBf4j+oN70lmik37plrDO9kC/qk28EuyQMhEC4Rl22L4Anf4TbRH2CQ/bN7PpIeCU5VUAn8O9kfA5V6VbP3SEX1xchfOby3C8cVx+GbLdJxdNhEPTqyC+vx6/HRoEe6dXomb5zbixJ5V7E77Ki9jXNehlEwoZxQQNmYtzUB4RghGzQrFiNmuCJ3Ohc50hXu8IRwJyiqqK+11IPySzRGaboch0wlqGqU6zQh7vmK+/v0ShKRZIoRa4JduCutRPTAgqANMQ3rBPswcHuPs4JFohRD2E//gFNmfMudamByVFquVuC6+p6o9SwSuZ045/6hZNEjFdPajD/DjqU24ui4Z6xLdcWrxBNw/+QFKCPzq1hzcP76AZeNiXD20hInc9+RwsbJ7Klpz4/5P2H18M8bmUMr5URg11x/hudYIzjSHLyXoGGkAE7+OsB3WFc7jDeA6yRDOk4zgkjgQvukmlGpfZK4NQMbKAEQK6KT+cInvAuf43hg82Rpe4xwwZ0Me7Ec4wDLCCB5JvWAb2w6ucT1w4Nw2PRrarvKo6XnAq2y8QrjEuHjh8BZc3LsCn3+QjFWMmV9tzobq7Br8dLAIB+bHUPoFeHCaMffkCnxzcgsefPc5VHdu4MCxXchdMhUjpgRhQtEoqnYobdEHganGCKSNuo8xhm+sLaYvjUd4igt8ppgqwG3j+8EmrhesRndGcMYARM8yQ8QME4ye5wLnsV3hNr4HGWKOwCl28E1wZCbxALPW58I4rA8cx3WB68Su1BwjzFkxjUj0W9iC9bnAhUkCXJ5liapry27i16snsXtxInbnjcaFdRm4sGoy9tGRnF4ei0/WxFMD8lk2FuL+0eUoPr0e3xx8DxnTQzBuVgAi8rzhlmoJ/zQ7eE4yVqRrG9wbWYtTGCxLqZJ3sGzrTLhM6AuvlEHwpxlYjulG6Q3A4JR+iMt3xJj5TgibyTCW3A/+00zgm2IC4+COSF8ci6OXd9NcLGE+qj+CZpgheIYpwpkLLNqUT60rp9lKOis+pzrgck1AMzZrxVFVMB4+LEPxL9dwcvsCXNlVgGPLk3BiURzOLk/AoYIROELwn21Mxg97clBMx/fr/kImG3n0xEwspjkjeLYT7BKN4DhmABfYF/5jLbB+32Lc09ykH7hPT/8AuUsnwzauO+ziesI7zQzWY3swThsiJNMU689nYMnHkxA62xYeUwxgl8D7xvSianfH7HWTkV4QB5soQ3imWTMyuCJqrgtC0xxx7OIhai8LGZqegHo+cJJ8qY+DBK8pgbb0Jq6d242ja3NxeGkKzq5IxIH8kdSAaKydFYmNMyOxg+3s8mScXTkF+xaPx+g4C0SlO3Kx5hgU1RPGQV1g4NkGn31zkDPIw37ZvmJhcvUERkz2g8fkfgRL5kzsD69UU7gn0c4n98fGT6ajcP84DKakPdMNYR3XFfZj+8J+ZF/kb0+D90gL2r05vDJsETnPFZE5rghP9UTJw/soe8gUlhFF9gyqI72qCykMkD/kmTyMJwOkVi65dR2b5yUjyroTCuL8cP3oJqju06GV/YKHt7/Hz5c+xoVjG7Hpg2y4DCaIoEGwCDBGSkESDp3fSaB3oVIxpy4roRkB566cRMSkwQiaZA2/qUZMTBiupprBQ1Q+k0lM2iBE59ohIoumMtUY3lMGwoWM8Uw2hc3oPogvGgqbCDq6VCfGfRcEJdvCd7QVth5crUQWLZ2aWqkJfivlJ+kJ4FVxWKfscEir0EhoUuHA6nyMdTHAoRUzeX6fjJH4TR/OhAFUW9Bu75Z9BZcgK0zOnoC9Jz7S2xrTW62kqqX8VPF+hvtD5/YgPNkDIYzNQZRo4HRzDM4wh086vT4zN3FSIyRGT2fcTjOE12QDuFEr3JIG0ScYI3K2DwLS7TG6KAwRcwMQNysYQ+Pd8N2tL5g/yFsTXA5JiqLq6DHwJ6iC4JVNf6lNufCjW5ZgbrAzjq+Ywy9vK4mCMFRMRxyiVF0qTRkvMU2lpohXVTNdLafKVRC+cq+G47Hw+ernC4hKCUBQohN9gS3t2AkhuY4EaU77tsSYeY44f2s18rbFYEiyMfwTGQkSB8GT5uM92QwO4Z2QOsURSaleGJvsi7ScBOw/ukuRr5S9kkvJXMqFauh3gStPH1mZKQMQ+PHty1AwxBmnV83juWw4clSZoNJx6JQS9mkvqlEsjRWe3CjDyD1aFb65eQlJs0Zj8Dh7uFGVfaZZUmVtlXDlTa8exmtTV/lT3a0QOJmmQNC+iSZUeYbDeAM4h3RATqI98mYMQdaMcKapv7AOKkY5RS1CFuBKvf8ywGXNosbHti1D/hAXnFmdx/O7CmdFkFIDVwF9lmQbQpRdqeMEuAxHiZdU3MSuMxvgN94BDkl94Uywbqy6bEf3gHVMZyYs/eCVwOQmrjOTlp5wievDWN4XjmwuI3shhuXrYdmDWzoex/cWcuA7HJtlqTjlynkIgH+qp+qBC0Da6aldKwjcGSdXziUnb/9G4lVNv+Ggb1KzSxUutyqLEV7RJIpZmi7dPR/2UUZwmNALXlMGMSW1hGV0V5hEdGR2NoBZWHc4MoTZjusO1wkGcEkYAO9x9PjRfVCYPwxXN2Qo+cMXW+YgPzECX52U/bgyziEGXjnZc+h3gSsSFDtWVl2qqPq8QAecFBt/Anh1pOUYyi4qbxX1E3Mor1Dh6p0LGD41CF4TWJRkWSCUBcsQVl0CzmxEJwRNtaBnN6HHHwSPVEP4pJrBZ7IpgibzOhOWnOk+uLFjJrTH38O9g0uxcFIoNhek4853n3ESlsqco0Knf1uiOvpd4AoJZkVjSnCMwOcG2OPEe7NfADhDizhJ3qqj5kjFJl5+xZ4FlJ49wnO8EVPghph8Dwyf7YagDDu4sSQdOoPf0dkNncnCJdsGoazBQ2c4YliGA6KSbTBhghV+3jsX2qNLUHFiJdakhmHl9FE4smkhVZ0RRyuFCqX/HKoeeJXEd76HOf72OL581mPgzzEjCXkS0iRp0UtBsqlihKd5Yli2OyLmuGFMgTvGLPDCqAJfRM/1YwXnwlrdByPmeWEka/WxBZ4Yk8djKWdzXTFihjPipzri+Icp0J1bgZvbsnB503R8vmMeDm2czVT7R2rXA65Pnq1VT38CeBlO0MZF4seWMY7rbul9x/OAE7SWfWWvrUInCynDzZKv4T/BBmE5LhhZxHBU6InYQm/ELvAjA4IxJNMZcYtCMLowADF5BD2b9xFwZLYrhuYyLc20R0yaLbavGgv1J+/hwd7ZOFQ4GodXJWPrMjJD/SMlLlHnpSQuUhVbKcfp3Yyr/hY4tiSbOnxfUd/nAtfJgz3ZnWFg43GF5AOf70Roqj2iFIl6YUyRLwEPxkhKOSbPF/7ptghkE7UfmuWA6NnOiMxlsZLjhMBp9qzYXDAk3hT7t2fh+yOLcPPgQpxam4Udi1Oxrmgq18zskNKuYL2h+Klq6I+BixHrSpSjczvWIt/PAMcWZpAPHFgZVIz86cGf9PCyLa0UPOSSSqfFfSY+E2ZFMytzwYhZ7ogtCsBIkXRRIEbm+7L6MofLOANYRXVj+WmJoZl2CMt1YPXFeJ5tjSHTHOAROwij0wejpOQKPju9BUdpgl9fPIGKktsMGfLMnPNyvifX8Wg9z1D1wJnwC53d/gHmD+7/YsDlSQfDlxyXEziTWoyZFqqorey7xRYF0bkNJvAARM/3gev4gUqzHNGVIc0MfvTkUbOp5nNcMDSH5S0TmbBMF0Qku+FO6WXOdovtvn6NzBo1ZVRvxZPK/E8nU8p6nqE/BfzMtjUvDlxiKgHLczKh89dPIHSiGwJZp4cwfEXMog0vDMTYRUH06h5wjOsHJ2ljmcBMNEZgsjnCp9lR9c0QxFQ2aq4n4guCkVgYgfw1qfjp1mVqFBMXevCHjBjyQnAVcF54ai3Kep6hPwX8NIHP8eqNI4XpLExKOLYYuAD67YBVJLYtY5RrNNi6fzMCxrgjgLE7PId2O8eTah6IsJmuSgwfymuu4w3hwOwslCrtMLo3glMs2cxZpdkhKN0UzuMke+vHOrw3UpeMwc+q71BO5qrpadXMEZ52Ob8VyrP0XwQuL95JAaPFut3vIzjeA7bDehKg7LOx3GR1FjzDAYGZtvBiyekU3x/2sX2o3p6wG9lTsfOAFDO4JfSlFvRg+toHHhMGwnuiCULT3PDpt6cIVl9FPiiTtzUoWf3MbH8pcClcmLRQ3a/fvIrIFD94jTWCV5KhAtwhwQj28f3gOK4/fFMtFPu2Hd0LE5aEwia6O3yTTFmNDYLd6G50er3hSgZ4CNNi+8Mj3gzbj8mzeh3KxL4rn+w8Dbx6qh645L8ksfE5nlXA5Y2I53NVgKs1apSUl2H5xkIMGe+MISnW8JhsCI8UC7gn01vThm3H9mZ6aqWoulV0D8zZmQjziE7wo8TD5rrCg/W5J/N338SBrNYGMXU1Yy5gjuBoB2zbuoLzsCRWFUNDry6rEQbQwpU1VEd/DFzAUVqyEXHqw2WY722Kw/MJXMvMSEYXJ/I7VOVMZFNA9rgpd8RmDKN928F3kikGs/wMnu7MNNQNfqzBHSf1h1emORzijGEV3hdrjuXBMaYPfJNNEDbPCT7pJszXTRDCOB6YSmbROQalWcJvtCXmL82gxEtRqqKDU4Shb7K851E1wNmU6qwYpzYsQoGXLQ7MSSU7JWXl5T8YXQEtFRrvUZ62klyGD0LoFAcM5eKHMRMbPtsb0XP84JNkDJcprL4yjWE9hm2YEXacWwkv2YamSYTNZb6eY4OA6baInOujeP+h2U40AUO4jTJEdEoQNUoFNdep0eplrW/Ppz8BvIQSX4Jcp0HYlZPEa7f+FHB5HCW8P3L6IwxLcVOeloTOsEHcUiYuRX5KTu42QaRtAkeCtx9tCr94F+z6ZA2Bm8Jj4kAMmWWNobMd4JdppfgCcYBO9Av2sT1gG94bXpE2KKNWlmnkHfj/FHAhZbBSnNq8FDPsDbF9xkQmC7/+OYlT5PLTqV/vfwvnSAN4T2CJmTwQwdlU1xm2GMwa3J8q7J05CE4CPHoQhk8JwtZTq+BGJngmMpbnWCCYEvedak7PbwLPpEH0BazX6eTkiUxq/jjlsZW8Ca2W98D/YxJXVLUEJwk8zaIPtk0ncO1NyMsHyhbPMySgH0m80vOrdXdhFtgJQwg0JMsSgzMp2WkWtFtzJTlxm9IfDol9YR9pjIScGGz4eBmcyAQP+gO/6WYImGEBf97vPcUEzgn96fl7wjqmB9xHDcK5bw7hPp3n/WKpCWQFLwC8arHSnqWHyusVxTi+eQli+7bHxox4BbhawAn4J/pK00tawpg+czp6+giixg3DqJxADM91w6hCLwQw7x6cJQ8IbeA5yQDuk/spu6j+Y+2xkyEqa8kUWIYOhH8aHVuGKbzSjeCeYkDvbkCJD4DbxAEMb4bwHGOGhR/OZNH7ECVqVvoq2RH+DwGXt5NE1Y9+uAhR3VtibVosxxXgItHnAQc+u/w5xqfFYezsUKacPogu8IZXhgVcUkzhylzci0CcJ/aGbWw3JM2JYvD8FdMXpsA+gqqdZAe3lIFwI2CXpD6wH9cNFtEdYD6iE8NeTyVK5C6fgpsP7qKMai776f82cNk2fvxZBbwMRwg8vNPbWJs6hhdvstoSgAL8afBPAlepJRQCHx3fw6rKmvm5CwKz7OGZYQl7Fhy2CQPhMqE3bMZ2gVlUBwyJc8GP964gbHwgnGNs4TPFGS4E7ZzEzC2xF5wnsfF+q5FdqCmM5ePt4RvjgLTsabhfKk9OZLYXAF75SdXVoPT+bezcuAY/Xr/A/g+o1vrs7NDaInj0aoYFSZE8vavvwOsPGUO1DCcKYGFUFSNoB/IqVolWpeyzpmePY8Jhi9BYM7hG0iMP7Q7XKCPYBPeFpV9fRE70w7Vvz9GX3qVbuYt9BzfBO9Qe9lR59xgj2IV3hWVwO/iMMYQ7fUFEQjD2H9mC0rKflZVIzi6bm5IzyMa2vGvN1Sjf/RE94dyY/t39FWGD3WHZ6x0EOtpgUuQIHN+5GevnTYVjryaYERuEu19/ijs3vse1i5/i5o2v2Y+TshBR9tV5pjBe0lWCLy1XUwV1uHP7GywuSkFSogdGxFsgZKQ5ho11QsKMaGzavxq3y26w4itGefk9LoOlJtS4desbJKQFY/hYWwyJNkDQ8J4IJbMms7T98ddrvEdeTpLft5C5Wg00iiOW2UUVq0+nhR4Bfyi7LbpyJMZGYVDXFrDs0Q5WPbvBoNWbiPGwgGn7Ouj11j/Qod4raF2/Dv71Sg3ERg7V9+NkksYqU/NTPF85VV3CnhRpt699gVg/e6ydG4f382IxKtAMh3euQFkFq3T1Xagq1Ep6K4vVMCUW4BUMm1999iEuHirCxV252LckHhvyx6L83udQae+jnIMrDlY0mxPr1PxTpenSnkOPJS5cqlBhRnICzHq0hnm31jDr0hHG7ZsgnDF8YIvXMKBFTfRvUQcdG9VFk9dfhYOZodJVihHhrzBdfmuiUx4ryXbyQw6pw/Zli9Gt3t8RYtYOiUNMOdarKKDTk0dV8gSkVK3mp45SE18haERiKowbZo9ja2bgwYnVOFmUiKVJobhweCNjtwqltCu5S63i3PIunbzGQp8kO7qVWwDVEp0b5xG7rJCtGxXmZ0+FRa+2sOjeBlbdO2JQ+7fhZ9IDA5u/jn5v/xO933odfZq+ibZ1a6F9k4bKIPIzZ3mbQoDLczN52FjGzzJekF8Lzxo3AlbtXod79zcQYtoMxs1fwUhPS6WvmqDFI0uSWK44Cl4U7dGVoW6NGliTwUhyeT+OzUnEaJs+mJU4EmVkTjEZrJY5NbI9JmtnDVGuL1ZUwkBlGGGkvj1Lj4DrNxY1uHL+OIyp6na934FDrw4wbNUQVu82hUmb+uj/9uvo/1ZN9Gv4Bnq+XR8Na/5LPwpXK0PLmqskri4XJyhPUm8jI9gYkUb1kOhYD/G2DTGkf21M9jfid7TTCi6c9iCRQonESlhizzu3MaBdI9i0qw/fd+siuFsjWDf/BxIC7WnXMm4xym5+ghXTw5A/zhmF491w6dgaDvAz1yE/JngMunrgyo6Jlh79ElW9Dez6doBD93YY1KYRTNo2glvfdjDnZ98G/8TAhrXQq3Fd1Pqb3lJke6lKWGLrshWkY05feucSti5Kwzx67yJ65cLAt5A/pDWyfdtiik83qO99wx4llNJdlNC/MP9S1F0Zs6wE3Rv+DXbtaiGgex0M61MX9q1qIGu4Pb+9hzuX92BL9jBkD+6Amb5tMNWlCSZ4dVfmU9+7Tvt/+j2YZ+kJVZdXQDQovvUjDDs3g5NBJ7j07kDQb8KwZV14DegI6/aN0avu32FE4P2aNECz+jXx4P5dpb+iroJeSBIczc/4cEESxrv1xSL/Lljm8xaWetfEkoDGKPBvhRSnVti0bBoq1D8w6/qJ2YKaqZJWsXUhzf07MHr777BsWgNOLWpgssPbCO9fE+Mc2+DQqkzMDTPGbK/2WOTZBKv8mmDF4KZkcB/EOXfH3pXyxEeSrGolztDD6+IPNErCAjgavAtPk65wGtAJph2bEngDGDapDQOx70b/QJ+3XkWXN19FxyZ1UDRvptJHHgiKoyqjjcmbCRd2FmKaV2vM82uDJT4NsdynPhZ71UG2SwOkODRCnNVbMGvdAOf2rGdvNcrU0o+L1DxA2b0byEsZjhFGdZFoVQ+5zvWwyPV1rCTTlgYQoE8LLA1qhaU+b2KFV10s57hLfRog3b0lRti0RLhTd2VN1dEj4OJYJBGR+BDj7wRXI2ZIZj1hRvs2bFkfA5u8gX5v/hN9Gv4D/Zr+E72a1ESnxm/A1cIEWlUJuUqvXBm75WHh6c15yPRsi2yPFijyboT5zq8jz/kNpNrSzi3qIdK4ASzbNsblY3u4DD1ojcQ/MuHsoW1w7N8SI80aYZJ1PWTa1EShW20s9m6A+R4NMMe7BQp8WyDfoxGK3Gsr3xV6v4kJ9k0RadMGQx26KeCqo8fAqWJaSryC1c6slLGwpmf3Mu8NC6q9MSVj1OwNGLz9L/Rr/Cr6vP0PenceN38THd9qiC8+Oa8MJgqlosTVdG5fHl2HdM93kezQDNkO9ZFjXxtZtrUx3qweYozrIsSAzGzeEJeP76NjYNwmcGkyyt4tq9G75WsYRocYZ1GfzKqLWQ5vYJZjXWRyjEz35pjh3gxZzm8ix7EOchx4zY7MHNQIXv0bI8rbWFlPdVRDJCwOScKJknoyNN26cR1xEYFwN+9Dle8Fh97tYUmVt3jnLZh3bAyzTo1h3aUFbDu2hX3vnnA0NMTFM2f1vxKmxGX56+ZnYIhRaww3bYMEq9aIN2uKUUaNEWbYFEEGzeHZuxm6MBzuWreSdkItYdzXS1yHLz47AR+7/hg8oAkCDBoiuM8biB5QCzFGdRAxoDYiOdZwi2YYYdUc4QPrILRfLQTyHrvOddCvTR30eacZHa4+m1TCK8d91s7plvXORMKQcoPyEECFIx9tRbifM7ytBsLLrC8cer4Dux4E2rMtbOjh7Xu1h2ffHgiwtoRlnz4Yy/RW3h+V/xWCkEGHFujR4BXYdKgPt8714dyhJuzbvgaL1rVg1IrOsVkttKz7GuwGDcCD2zf10UDpWYE1KxahY7P66NfyVQxo9jcYN30F1vToNm04Xru/w+bdmrDqVBMW7/4Lpq1rYBCd38BmNdC3ZW28+zazSsb/4gfyWzm9Y1NM+Bki8Kc5ITcpe+JU2Qtnj8DHnoWFmQFcjfvAzaQ3PEz7wsOS0rA2xFB7C5qDCWwGDED8yJEoVz3+iYRB93fR+NUaaFv7b+hQpwY616uBTnV5/sYraPJaDbzFVotpr5WxIe4zZqvo3IT5QptZKLV6uwGa8t427NuRfbtIq88xGvD8zb+h/ZuvoG3DGmhTuwZa1aqB1vxszDGb1HkN9WvVVCQuJMCllvgdiVfRY9cvWzmS9JeVS1bEDtSCX7+9jk+PfYz9OzZj24drsGX9Cny8ZyO+++oicx/9/rvyy0EJa2SAkDBQrS7Bpc/OkonHcfLoAXx6/jS+/PIq7hLsI20T3yIaR+eoUnJ1vdZU6YCe5F5hKuMPw66WiY+m4j60mnv0S/egVbPAeYJEzfVCfBpwFVUC56BcpOLoxC54RZr8lFEndsdrVYt8mgSg/icc8vqFIm2Zh4wTPyWHvz+tnuQ9G42EMfaTV0rlJ1ny82gBJkzQW/xvx6haDWfh38ffasrFVDm9XtiPBPl7VAmcX0qPypvkb9XgVd10SuYvZ2IzkhXpU1ytJD68UxaqkNyiMErfX/+AsWpMvQyVxj/iU4SUBSpX5Viu6c8l2ihNzuQeHuvHFFZzTv5TxlS+E5WWdfFL/lc9Af8H/K7VUwLghCQAAAAASUVORK5CYII=;" vertex="1" parent="1">
          <mxGeometry x="600" y="120" width="46.88" height="62" as="geometry" />
        </mxCell>
        <mxCell id="9jcErkdEfAQfmoSE7lLc-26" value="" style="image;sketch=0;aspect=fixed;html=1;points=[];align=center;fontSize=12;image=img/lib/mscae/Cache_Redis_Product.svg;" vertex="1" parent="1">
          <mxGeometry x="592" y="381" width="50" height="42" as="geometry" />
        </mxCell>
        <mxCell id="9jcErkdEfAQfmoSE7lLc-29" value="Mongo DB" style="text;html=1;align=center;verticalAlign=middle;whiteSpace=wrap;rounded=0;" vertex="1" parent="1">
          <mxGeometry x="587" y="210" width="60" height="30" as="geometry" />
        </mxCell>
        <mxCell id="9jcErkdEfAQfmoSE7lLc-30" value="Zookeeper" style="text;html=1;align=center;verticalAlign=middle;whiteSpace=wrap;rounded=0;" vertex="1" parent="1">
          <mxGeometry x="620" y="105" width="60" height="30" as="geometry" />
        </mxCell>
        <mxCell id="9jcErkdEfAQfmoSE7lLc-31" value="Redis Cache" style="text;html=1;align=center;verticalAlign=middle;whiteSpace=wrap;rounded=0;" vertex="1" parent="1">
          <mxGeometry x="652" y="387" width="80" height="30" as="geometry" />
        </mxCell>
        <mxCell id="9jcErkdEfAQfmoSE7lLc-32" value="" style="image;aspect=fixed;perimeter=ellipsePerimeter;html=1;align=center;shadow=0;dashed=0;spacingTop=3;image=img/lib/active_directory/generic_server.svg;" vertex="1" parent="1">
          <mxGeometry x="420" y="190" width="28.000000000000004" height="50" as="geometry" />
        </mxCell>
        <mxCell id="9jcErkdEfAQfmoSE7lLc-38" style="edgeStyle=orthogonalEdgeStyle;rounded=0;orthogonalLoop=1;jettySize=auto;html=1;exitX=1;exitY=0.5;exitDx=0;exitDy=0;entryX=0;entryY=0.5;entryDx=0;entryDy=0;" edge="1" parent="1" source="9jcErkdEfAQfmoSE7lLc-33" target="9jcErkdEfAQfmoSE7lLc-22">
          <mxGeometry relative="1" as="geometry" />
        </mxCell>
        <mxCell id="9jcErkdEfAQfmoSE7lLc-33" value="" style="image;aspect=fixed;perimeter=ellipsePerimeter;html=1;align=center;shadow=0;dashed=0;spacingTop=3;image=img/lib/active_directory/generic_server.svg;" vertex="1" parent="1">
          <mxGeometry x="436" y="190" width="28.000000000000004" height="50" as="geometry" />
        </mxCell>
        <mxCell id="9jcErkdEfAQfmoSE7lLc-34" value="Shortner Service" style="text;html=1;align=center;verticalAlign=middle;whiteSpace=wrap;rounded=0;" vertex="1" parent="1">
          <mxGeometry x="404" y="160" width="60" height="30" as="geometry" />
        </mxCell>
        <mxCell id="9jcErkdEfAQfmoSE7lLc-35" value="" style="image;aspect=fixed;perimeter=ellipsePerimeter;html=1;align=center;shadow=0;dashed=0;spacingTop=3;image=img/lib/active_directory/generic_server.svg;" vertex="1" parent="1">
          <mxGeometry x="441" y="320" width="28.000000000000004" height="50" as="geometry" />
        </mxCell>
        <mxCell id="9jcErkdEfAQfmoSE7lLc-36" value="" style="image;aspect=fixed;perimeter=ellipsePerimeter;html=1;align=center;shadow=0;dashed=0;spacingTop=3;image=img/lib/active_directory/generic_server.svg;" vertex="1" parent="1">
          <mxGeometry x="457" y="320" width="28.000000000000004" height="50" as="geometry" />
        </mxCell>
        <mxCell id="9jcErkdEfAQfmoSE7lLc-37" value="Resolver Service" style="text;html=1;align=center;verticalAlign=middle;whiteSpace=wrap;rounded=0;" vertex="1" parent="1">
          <mxGeometry x="425" y="290" width="60" height="30" as="geometry" />
        </mxCell>
        <mxCell id="9jcErkdEfAQfmoSE7lLc-39" style="edgeStyle=orthogonalEdgeStyle;rounded=0;orthogonalLoop=1;jettySize=auto;html=1;exitX=1;exitY=1;exitDx=0;exitDy=0;entryX=0.013;entryY=0.675;entryDx=0;entryDy=0;entryPerimeter=0;" edge="1" parent="1" source="9jcErkdEfAQfmoSE7lLc-36" target="9jcErkdEfAQfmoSE7lLc-26">
          <mxGeometry relative="1" as="geometry" />
        </mxCell>
        <mxCell id="9jcErkdEfAQfmoSE7lLc-40" style="edgeStyle=orthogonalEdgeStyle;rounded=0;orthogonalLoop=1;jettySize=auto;html=1;exitX=1;exitY=0.25;exitDx=0;exitDy=0;" edge="1" parent="1" source="9jcErkdEfAQfmoSE7lLc-36" target="9jcErkdEfAQfmoSE7lLc-48">
          <mxGeometry relative="1" as="geometry">
            <mxPoint x="632" y="290" as="targetPoint" />
          </mxGeometry>
        </mxCell>
        <mxCell id="9jcErkdEfAQfmoSE7lLc-43" value="&lt;b&gt;&lt;font style=&quot;font-size: 18px;&quot;&gt;URL Shortner System Design&lt;/font&gt;&lt;/b&gt;" style="text;html=1;align=center;verticalAlign=middle;whiteSpace=wrap;rounded=0;" vertex="1" parent="1">
          <mxGeometry x="28" y="20" width="272" height="30" as="geometry" />
        </mxCell>
        <mxCell id="9jcErkdEfAQfmoSE7lLc-45" value="" style="edgeStyle=orthogonalEdgeStyle;rounded=0;orthogonalLoop=1;jettySize=auto;html=1;exitX=1;exitY=0.25;exitDx=0;exitDy=0;exitPerimeter=0;entryX=0;entryY=0.5;entryDx=0;entryDy=0;" edge="1" parent="1" source="9jcErkdEfAQfmoSE7lLc-8" target="9jcErkdEfAQfmoSE7lLc-44">
          <mxGeometry relative="1" as="geometry">
            <mxPoint x="290" y="269" as="sourcePoint" />
            <mxPoint x="420" y="215" as="targetPoint" />
          </mxGeometry>
        </mxCell>
        <mxCell id="9jcErkdEfAQfmoSE7lLc-44" value="" style="outlineConnect=0;dashed=0;verticalLabelPosition=bottom;verticalAlign=top;align=center;html=1;shape=mxgraph.aws3.application_load_balancer;fillColor=#F58534;gradientColor=none;" vertex="1" parent="1">
          <mxGeometry x="340" y="218" width="40" height="52" as="geometry" />
        </mxCell>
        <mxCell id="9jcErkdEfAQfmoSE7lLc-47" value="" style="edgeStyle=orthogonalEdgeStyle;rounded=0;orthogonalLoop=1;jettySize=auto;html=1;exitX=1;exitY=0.75;exitDx=0;exitDy=0;exitPerimeter=0;entryX=0;entryY=0.5;entryDx=0;entryDy=0;" edge="1" parent="1" source="9jcErkdEfAQfmoSE7lLc-8" target="9jcErkdEfAQfmoSE7lLc-46">
          <mxGeometry relative="1" as="geometry">
            <mxPoint x="290" y="301" as="sourcePoint" />
            <mxPoint x="441" y="345" as="targetPoint" />
          </mxGeometry>
        </mxCell>
        <mxCell id="9jcErkdEfAQfmoSE7lLc-46" value="" style="outlineConnect=0;dashed=0;verticalLabelPosition=bottom;verticalAlign=top;align=center;html=1;shape=mxgraph.aws3.application_load_balancer;fillColor=#F58534;gradientColor=none;" vertex="1" parent="1">
          <mxGeometry x="340" y="290" width="40" height="52" as="geometry" />
        </mxCell>
        <mxCell id="9jcErkdEfAQfmoSE7lLc-49" value="" style="edgeStyle=orthogonalEdgeStyle;rounded=0;orthogonalLoop=1;jettySize=auto;html=1;exitX=1;exitY=0.75;exitDx=0;exitDy=0;" edge="1" parent="1" source="9jcErkdEfAQfmoSE7lLc-33" target="9jcErkdEfAQfmoSE7lLc-48">
          <mxGeometry relative="1" as="geometry">
            <mxPoint x="463" y="226" as="sourcePoint" />
            <mxPoint x="607" y="265" as="targetPoint" />
          </mxGeometry>
        </mxCell>
        <mxCell id="9jcErkdEfAQfmoSE7lLc-48" value="" style="dashed=0;outlineConnect=0;html=1;align=center;labelPosition=center;verticalLabelPosition=bottom;verticalAlign=top;shape=mxgraph.weblogos.mongodb" vertex="1" parent="1">
          <mxGeometry x="580" y="230.8" width="41.2" height="86.2" as="geometry" />
        </mxCell>
      </root>
    </mxGraphModel>
  </diagram>
  <diagram id="O4Dh2DFAWYgpE2YKjeDe" name="Page-2">
    <mxGraphModel dx="1025" dy="417" grid="1" gridSize="10" guides="1" tooltips="1" connect="1" arrows="1" fold="1" page="1" pageScale="1" pageWidth="850" pageHeight="1100" math="0" shadow="0">
      <root>
        <mxCell id="0" />
        <mxCell id="1" parent="0" />
        <mxCell id="RAXTKKZRwkbTvzXEfk9H-1" value="" style="rounded=1;whiteSpace=wrap;html=1;" parent="1" vertex="1">
          <mxGeometry x="63" y="122" width="118" height="50" as="geometry" />
        </mxCell>
        <mxCell id="RAXTKKZRwkbTvzXEfk9H-2" value="" style="html=1;verticalLabelPosition=bottom;align=center;labelBackgroundColor=#ffffff;verticalAlign=top;strokeWidth=2;strokeColor=#0080F0;shadow=0;dashed=0;shape=mxgraph.ios7.icons.smartphone;" parent="1" vertex="1">
          <mxGeometry x="82" y="132" width="18" height="30" as="geometry" />
        </mxCell>
        <mxCell id="RAXTKKZRwkbTvzXEfk9H-3" value="" style="verticalLabelPosition=bottom;html=1;verticalAlign=top;align=center;strokeColor=none;fillColor=#00BEF2;shape=mxgraph.azure.laptop;pointerEvents=1;" parent="1" vertex="1">
          <mxGeometry x="121" y="132" width="40" height="30" as="geometry" />
        </mxCell>
        <mxCell id="RAXTKKZRwkbTvzXEfk9H-4" value="Client" style="text;html=1;align=center;verticalAlign=middle;whiteSpace=wrap;rounded=0;" parent="1" vertex="1">
          <mxGeometry x="48" y="92" width="60" height="30" as="geometry" />
        </mxCell>
        <mxCell id="RAXTKKZRwkbTvzXEfk9H-8" value="" style="rounded=0;whiteSpace=wrap;html=1;" parent="1" vertex="1">
          <mxGeometry x="200" y="50" width="290" height="250" as="geometry" />
        </mxCell>
        <mxCell id="2V6AKpVLjlMyQVjp0-8h-1" value="" style="outlineConnect=0;dashed=0;verticalLabelPosition=bottom;verticalAlign=top;align=center;html=1;shape=mxgraph.aws3.application_load_balancer;fillColor=#F58534;gradientColor=none;" parent="1" vertex="1">
          <mxGeometry x="299" y="127" width="50" height="43" as="geometry" />
        </mxCell>
        <mxCell id="oSHisYJr7IseB77wLn9u-1" value="" style="sketch=0;points=[[0,0,0],[0.25,0,0],[0.5,0,0],[0.75,0,0],[1,0,0],[0,1,0],[0.25,1,0],[0.5,1,0],[0.75,1,0],[1,1,0],[0,0.25,0],[0,0.5,0],[0,0.75,0],[1,0.25,0],[1,0.5,0],[1,0.75,0]];outlineConnect=0;fontColor=#232F3E;fillColor=#E7157B;strokeColor=#ffffff;dashed=0;verticalLabelPosition=bottom;verticalAlign=top;align=center;html=1;fontSize=12;fontStyle=0;aspect=fixed;shape=mxgraph.aws4.resourceIcon;resIcon=mxgraph.aws4.api_gateway;" parent="1" vertex="1">
          <mxGeometry x="220" y="126" width="45" height="45" as="geometry" />
        </mxCell>
        <mxCell id="RAXTKKZRwkbTvzXEfk9H-6" value="" style="edgeStyle=orthogonalEdgeStyle;rounded=0;orthogonalLoop=1;jettySize=auto;html=1;" parent="1" source="oSHisYJr7IseB77wLn9u-1" target="2V6AKpVLjlMyQVjp0-8h-1" edge="1">
          <mxGeometry relative="1" as="geometry" />
        </mxCell>
        <mxCell id="RAXTKKZRwkbTvzXEfk9H-5" style="edgeStyle=orthogonalEdgeStyle;rounded=0;orthogonalLoop=1;jettySize=auto;html=1;exitX=1;exitY=0.5;exitDx=0;exitDy=0;entryX=0;entryY=0.5;entryDx=0;entryDy=0;entryPerimeter=0;" parent="1" source="RAXTKKZRwkbTvzXEfk9H-1" edge="1">
          <mxGeometry relative="1" as="geometry">
            <mxPoint x="220" y="147" as="targetPoint" />
          </mxGeometry>
        </mxCell>
        <mxCell id="js0OEBVT8dzRXaIVX1Cu-2" value="" style="shape=image;verticalLabelPosition=bottom;labelBackgroundColor=default;verticalAlign=top;aspect=fixed;imageAspect=0;image=data:image/png,iVBORw0KGgoAAAANSUhEUgAAAIwAAABUCAYAAABQrd98AAAAAXNSR0IArs4c6QAAAARnQU1BAACxjwv8YQUAAAAJcEhZcwAADsMAAA7DAcdvqGQAACR5SURBVHhe7V0FeFXHur3v3fvuLW5JILgESCAkJCTBCVACwZ1ixaFF2gJFilNavLi7uxR3d3dNocWtUCBAgQJd71+z9yb7WHJOgrU36/v+L8k5M7Nn/7Pml5nZO/9APOLhAuIJEw+X8EYIc/PmTezcvR9z5i/H+CnzMHTsNPQbNh59h47DwJGTMHribMyZtwIbt+zE5ctX9FrxiCsifrqAJcvXYezEOfh+yBj0+P4HfNNrAHr1HYr+w8dj/OS5WPLjOpw8dQaPHj3Sa8UNsSLMg/sPsWvPfnTtPQgVqjdF4bDqyJyrIP6TMic+SuWNBGlyI6GnJvw9gYcP/pMiBzyzBSGkRCVUqNwEffuPRMSFn/UWncCff2Lv/kMYOXYyxk2cjnGTZqifYydMw8IlKxAZR4W8fPECq9duwhhpz2h/7ARpX37fsXOvXir2ePHHH1ixar1F+/zJ+zl0+LheKmbcunMXI8ZOQflqTeBXsAySUMdu3kiSLg+SpfdD8gz+In5ILH9/xM9T54JvSCkUL1cHDVp8jdnzl+D6zVt6a67DJcLs3XsYvfsOQ74C5ZA6SzDcswQglXQwbfZgZPUtjJwBxUVC7UtgcWTLUxTpcoRIHT+4ZcqLtN6F0Kp9D1z4+Rf9Co7x5MljhFdrgIRpckkbweqahiTx9EXDJu2EU3/qpV1Hl24DkczDF2m8giza5t8p0+bG/IVL9ZKxQ6du/ZHUIzc8s0e1T10k8MiJWp+2UoSKDg8jIzF01CRkC/gYKUV3qTL6IX3O/MiRl/oVvfOntcjn/D6jT0F4ZAlESuo9Sz5k9S+Ort8OwpWr1/XWnYdThIm4cFENSHqv/Egk1iKjTwEZ/CLI7l9MdSiH/OTvzgrrePkXRZbchWRm+MLbrwSWLVunX80+XogFqNu0LZLJzGEb2fyKwkuXDDlDkFnId+bseb20a7h//wGyB4QhTbZ8r9s0t++WOS9Kla2nl3Ydt27fQSa/4ook5vaptyRCxmZffIM/X73SS9vi6LGTCAuvIxMjFzJ4F3itQ7NOYxI1TnmLybWLIJMQKGFqHwQXqoiff3YtRIiRMHd/vYeQopWQ0MMbmWWAvcVSOO6QJjafmcpZC2dB6qyB8EgXgKVL1+hXtY/BQyYgsbsPcojFMrfhJZIqoz9Gj52ul3QNO3buQVYZQN6fuV1D0osl8AkJx20Z+Nhg6YrVSCttZPXVJpkh1EuytL7imuboJW1BN+wdHCbl8tjVJf82dK6IKBPZEP7taAz4WRKx1oOHjdOv5BxiJMzR46eR1NMP2eXi5gtS6Gr4k6bVLXMAUqTPo8Qtk78ymcnFGqQUv5o6az5kUS7L/qwgAdJ5iYnOVgBHT5zRr2yLo8dOwCtvcZkh2iwzhO0m8siFpq276iVdw8DB48XXCxFlBprbNYSWMHPuwti0ZYdewzV06NJPBsfH5v7pUnIFl8aFi/ZjuVOnz8FHyOImrt+e7vgZ26CO3WTCeOru1FN0yZ+ciByPlHrYkF3uz9wOv+/Y7Tv9as4hRsIcEnPolk1MqTDWYHLWPIUVSRKlzo0U4hdDildGWLXGqFGvjbiN9mjZrjuaf9EFtRu2RZU6LVGqcn1RemEZlNxqFhvtmIWWhlai+ict8PKlffNMt1Q4rKZyHea6HGhPUUjJCrVx795vemnn0ezLrkgswSP9vrldQ/h5QnHFvfqP0ms4j+fPnqFavc+RSuIO832zz2lkwMIrNNBLWuL3339HxaqNZLLmtrGo/DtzrkJILAmFX6GyqFyzBb7s0Aujx0/BjDkLMXPuIkydMQ99B49EveZfo0KN5shfqipSeOZBUrFUHANaH+qxU/fv9Ss6hxgJc/CoECYrfW8RCXQDlT9PkzkYYeXroN+QsVixZhMuXboig+k4aHv0KBK79x7Et32HI5uPMFvaIUHMSqAwcPZIH4D1G7bqNW3RW1JGBnDZJQayrp8qrT8OHHQ+4yBIsOJla8oMDLFpzxAShrFTszbfqGzNFZw+G6HcA+/Nul0Gr6PGT9VLWmLmvCVILO7K2urRQniKxfYSPQ4bMxXnIy7qNaLH9Rs3sGLlJnTq2R+585YSy+OPfyXLhG69B+glnEOMhDl7/gL+lTi7MD0Xin5cAz2//UHy+rOStfyul3ANhw6fQFDxKsocWptZzpxkMqOafdbJYcazffcBJBITbK1I/s3ZM23WQr2kc9gv/UkqyosuzuJ3Gbzzo5DM0juS1rqCJcvXSoBpa704wz0y58Ox47Yu+MXLFyhRtjZSiwUw94sWKmOugvDKHYodO/brpV3HrZu3MWzsVHxSpykOHTqif+ocYiTMc0n3Fi5ehcVLV+PBwwf6p3HD0ROnkdG3qMq2rAcqXY78CC5eEdev39RLW+LuvfsoWKqayhas69LENv3sa72kc5i7aBmSZRR3YWqHg0mTbzFYIknT+WPvgaN6TefQuUdfuCuLaGpLBp5kqPxJUzwV12ONs+cjxG0UU2tbFvVEkorVGTJ6sl7y3SNGwrwtdBHTyEDZrBAKZ2JimZEbt+7RS9qCQSTTe28rt5Ze0us8+criUeRjvWTMaN2umwrKze2QMOFV6osriXJ7HKzkQqypsxboNWPGixcvhfxVVbxnbp+WNYG7N3qJi7aHZSvXIoNMJms3llEmiU/QxyoYfl94b4Q5eOg4UmUIUOsxZqVQmYnpWuYs1kvaYv7CFXAX/8+BNdelVcjmH4r9B50zswyiQ0pUQ1rJLlifpGDWES5BOomRMnOQsgZG+yRW4xbt9dox4/z5n6Q/JZQlNdqgMOhk1rXdwQoyV4Hpsq3vj5lOyMfVJO66p5d893hvhLl79x4KFK9ko0zGIikzBWDgsLF6SVtwISxP/rJIZydQTSnB6ZBhE/WS0SMi4gK8g0qpmcu6KriVNLRNh97iFn4StycElGDfaJtpa75ClfH8+XO9hegxefo8CdBlUpgsFYWuM1Asz9OnT/WSlhg+ZpLEN7YTgutBAUXK48qVq3rJd4/3RhjO7gYt2qqMxzrN5kym748ONeu1lLTU0pXQOiWRVLNpS8lmnMDsuYvV9Q3Xw34kSp0L/YaOl6D7FSp90kQLPPUAW7mEkDCcPuOcS2jxVU+1omod8KbOFoh2XRyvf8yZv1QmQ7DKrsz1uBbG9Hzu4hV6yXeP90YYonWHnmqjzB5hWreLfhFuxtxFKi011+PAMmguFl7DqWymU9eBSCixhJGtaQt0hbBl2y71fev2vdX6i/E9Z7xbBn9Mmx5zJvb40SOUr9EIHnIv5vtT2ZynHzZv3a2XtMXBw8eQPldh5WKNelpdSanFyhUqVR1Xrl7TS79bvFfCtOvWVzKPPDYzkCa75VfRW4lTZyKQxivEIjClUKnJ0/ph957Dekn7eP78GWo3aaMCb2NAGTRzC+DOnV9VmYmT5whB/F67Bq4dJXD3QbvO0Vs/4vDhU0idMZ9NjMa0OG/+cNy+pV3DHn7//SnyFqmg+mOuS6GuUkrwXbhMLezcFfvUOrZ4r4Rp2/V7h4Rp1TZ6wtD/V6nbQgacLi2qLn9Plt4fk6bN1UvaBzfdcuYJVSvQRl3O3tJVGuolgGMnT8ErkEGrlt6SWHRRVes2x5MnT/RS9jFL3EoiT1+LeyPheNygddseUiL6BcDB4hYTCTm9detmFt4jd9E9s4ag9VfdsW3bHnGhL/WabxdvhDAvX77Ag4eRatZcunwNv1y6imvXb+Hur7/h4cNHKl6xh7bRWJiYCEP07jcKCdxyvnYZhvDcTd1GbfRS9rFu4w5xN1xQi6rnLpnJoGFj9BK0Qs8RUKCitg+jl2FckS5HAZw5d0EvZR8tv/xGDapRj0JrQ5c2c7bjDNDAtas3kCekjDoOYXZphjCjY1+SS0aZLluIEL0Bvhs0Ui2qPo7loqoziDVhbty4iYVLV6NXv+Go3/QLBBQqi4xZCkgkXxjpvAsjvXcRZMxWCEES1ddp1Aodun2PH0ZNwfzFq3Hy9Fn8IS6hQ49+cSIMT/llFZdk7euZTeQODseD+44XGn8YMU4RxKhD4iRM7Yu1G7frJTR83qazsipGOQ5eIs88WLlus17CFk+fPUOe4HLSjyiiUbR+lZHJdEMvGT0WL1uNZGKlGFvZIw2FViurEIfni7hA6CnkKV62NgZLprhp084YLaGrcJkwEREX0aHTd5JeVlCnvRLLDaWRGc0zFll8C6mbMwvTZn6fIqO/DEguFUTmyR+G8OqNERRaSQWZ1kpwljBchS5QrJooSQbUZClIIB5X2LHL8Um58KqNtHp6nazimnL4heLixUt6CQ3T5yxCcm4dmNr3EKL1GTBML2GLw0ePIat/KDJZrdQyq6vySXO9lHPo3Wc4EqTIqdqytqRmIaEYa3Gxj7FPQjcfcVlBCA2vjXZf9xZd7Iv1do4ZThPmmViEQSMmIJtPUTGDvsrss5O8CbMy7Qm/N8pSGBPwtB7JZE8JzhKG6CxuTduMtLwez5n0HThaL2UJbjjm5jqOvgLL8gx+azRohWdiHczYu+8IUkhWY75HEi20XB351n4cMmLkZKRK7/e6vLqGSIoMeTHNhZViAwPFWrgL2VJJH0kKR9bGLDy3xDUkD6nD4ybumaXPpWpi4pS5ePAg9ls8ThGGCq5Trw0+khSUloQdttdpuhaaSH7HG9NuTjObiix6PSrPPADW4gphNmzegaSSFZnb47W459KgRQe7u8vbd+xRh5kM68byCd280a6j7VY/M6bCYdWQTmatcQ0SzbdAWdy6Zf9AVZOWndV6kHkyMN5Imz1/jLGPI+zYvQ+h5esqS51ShFaUx16pS+Ma9sQYJ16fQT2D7iIlq2HFqg16y64hRsI8lGC2StWmSJTKW5l9a6JQiVogGKIOIn+UKqda/OLSNs97JE2bWzscLgPC7XrOZC6/80CVka5aiyuEuXHjFvwLllHpqlGfSuTmZHBoRVyXWMsa/YeMQ2LTgSn2n9ecK5mNPTQWAiRlxqMTgH2ni1iz3jaOIcGKlqmh1oOM9vmTa0Z1Gn+BP2I4uxsdGBstWLICFWu3EMIXRQIZE5KAbsiwPNERiN9z0rpJWs71oQFDJMB37bRGzIRp+UV3JJQBzxFgpwMi9MseGfOhtLC/r3Rg2qwlWLRsHdZv2iayHUtXbsCc+SswYco8DBw+Ae2++VaCslpCGolvZJYYSjWLK4ShBWnRrrt2AMo0o9ku46vNknJao/mXXZFEyGuUz5izALyDwnDxZ8v4xUD/wWPV8Q6jr8oiibXt02+kXiIKO3YeQDIJns0Ti4OUQAjad9gEvVTcceDgUYwZPxPV63+GtDkKCgGC1CFvbpewn9aJhFnYN1ooTuZhoyfpLTqHaAmzSjKBFOKLGYXbXFg6Rd9YsnQdbNrMaNz5gOrx4ye4eu2GDFwX8esMKC1vziXCCMZPn69WjLP7RbVBMnOBa9T4aXopDXSvoeE1XyuWZbn5WLB4NYcn/XaKO+C5YSMb42AkF700lQzqldXh7bETZyBZOksXSTeeXdzyoSOuHe5yBkz9L/5yGVOmz8Mnjb5AcLGKKrPiSUgmHUoXpr4YQv0wlkydJR+2b3d8MsAaDgnz7OkzFdEzXbMeUAofL6GJvR+HAOrbQWPwkWnp3RBXCXP58lXkDimjXJ25HZrrKnUss5JDR05KQGq5pUDz3KFrH72ELR48eCgxS7nXQTKFLi+/uDzrg+E163+uEoLX7ctg0QoXKVnT4XrUm8TlK1eweOkafP5VV4nRiqjzvNwDs9YxhZ+lFHJXqdlUuTtn4JAwh4+cgHsG26VtCpWVr0B53L3r+vlZM7r3GyGmOlecCUOUrdRQxU3m9Fot9QeXUVbFwJyFP4o1iiIMZ18SzzxYsHilXsI+KtZqZkEEVS91Huw3HQnl4yq58pVRj70Y5ShcH+n9/RC91LsDXSyPtGbwKSwBd5Bd0nB8PTIEyn04dzDMIWGGjZFUTsyVdWDKizI2GC2mN67o1HuwejryTRBm7KQZygWZ26FJziRuZIPEUwbatOuqNjeNMrw/muUjx07rJeyDZ29TZQp4HVQql5c5EFNnR6XJ23bsRhZx3xZrS0Ks5JKW79p9QC/17rF73yHkLVRWuV573oITrU8/x+tKZjgkTK16rdUpfuvGqeA0XsHYe8C1s6D20PprbbfaOkAjYVq366KXcg5Hjp6Ce6ZAC4tI5SROkwtdvxuqyrx8+RIhRau+thQqaBcllq3WAJGR0T9qu1GC5wRpLPeG2M9GzdvpJYCefYepxUyDVBSm40XDquP+b2/meGtssWHjDiFMfovzPRTqiOFF+YpN9JLRwyFhwio0VM+6WAdMjBMKlqgc50M8DJIr1Gio9mnMCqZwIJq37qiXdA6PHz9GheqNpG7ULNKC0zz4tLl2Su7ixV+QK39p5VLV92LZEgmhPlObgdHj0pVrEseUtli9ZYyUt3Cl1weq6jVrq4Lh19dn++4+aP9NzLvbbx2STVZv0Eat4ZitDMfXXSxniQqfSpGYc2y7hOFjmyUqfgp3tfUfNZAcWAZ+RWTG8LGFuODM+YvwEMbzeSejfUN4eCisUj2nbsCMLnRxpvMt7C8zFL+C4Xj46BGWLFujnYDT3Sy/T5bOF0PG2H/UwwxusNYlIUxZHbOMnEEfqwfRbt+5px6ONxNKLZYJgRcvXaW38n7R8steSOzB5QErwsg4c7xjTRiysaQwzpowFCopoHC4w6f1nMX3g0baHIAyhJt0gYUrSsrqGmHWbtgiLkBbFDTaopVJIEHtvkPH0bv/KMnKogjFwfWS7w8dOaa3ED2+6fmDBSEpTF/nLFyOvQeP4SMG8KbBoPX0LyTJwXs8g2tG81bd1EqvJWFCVSb8cXn7D9RZw6FLKlWhkYphzI0bklxSsU3bHJ8YiwlHjp1CptxF1SOv1u6IwuzGO6iMxBXOn/4nIiMj4SdEo6sw2mL7qSXmGjZqIpqIm+MelnFPHNDcIeXUupAzWL5ynUpR+eQn6yuXIwPQU7K9iVNmaWdz9OtS+MDep2KVPgS8evUSlep8ZvMEJoU6adzSuRDAIWG+6thbS1Ot0moqiX66a6+BeknXcOb8BQQWqwQPUa55ppqFC2TZ8hbH4aOuL3R99mUXtZtsbo9vSihWuhqCipa3eHSDxKrbMPpzM2Zcu3ZDXFCYxEDaeg/JQdJxtTW8cr3XC3vqOxmUxDKxFokbdBXPnj3HvWiOZsQGa9dugWfmINtlEtFNqowBWODkOWGHhFmybLXMGEk/dX9vFp5Sy5C1APa5+FDXpk074BtSVrk6R2QxhO+Q6fdD1GEmZ7F81UYkSaO96cBoiwPLFJsxheFi+VkKCfbGT52t13QOoaU+ef1YimpH2uNKuPUxDRIzi18ofr7sWnLATK5Nh17wzFkQnbr3w849cT+GefzkGeQrUg5pTQmB6rsI++2VqwiuOvmuGIeEuXLtuigiajncLLwoX+rjGxImccPWaIMlnk89Ki6oTafe6mRYmiz5hCzaA2g8JkDzbm0i+TfXSoqVrqkWw1zB5cvX4O1fXBRh+RCYtfCx3MTuvti565Be0zn07vuDxcEris1alfSfz2I3aW27dRATHolbDatcX2V3PKLBTdVylZtg2MiJOHH6HB48dP5NW7fv/IoRo6bAK7fo2s7JPeVS3bzRtUd/Fbc6A4eEITp17y8+2nbpnqJII+bYM0swmkpsMHXWYixbvQnbd+7BCvk5Y9ZSfCuBbXil+kibha8DyavYTLJQwSnFylSr9xn8gy0zC0N4Tb4RatacJXpvnAMfD2nSqpN2ki8aK8ZYJKRYBbXb7QqWLl8nga/tYqNZqJukEtuMGuP64mbkw0iUr9FYnfLzDgxVATxjSU4gz+wFEFikgnqiot/QcZg0fQHmLViJBUvXYOmqDeo0I98lOHz8dLRq3xU+AR+Lpc6LDJIIWPeXfeTyBRf0Lrnw3sFoCXNJzKmPX0m1EmqfNFrqyKXvj9xyqlmRSfx7Ch5zSJlDHXdgGm7EDewkfShP3XGjjMcHO3buq86lmrMLQ1g3pFBFPHrkWvA7asIM9W4a6/YMMSxAvebtXbYAp06dQ+acUW/gsidc58kZUDJWb8QiYcpWbySBetTzUEpvMsmoRyYK1Dd323k+6T/Jcyh98gE8vuuOfydKk1uVUc9mSz3WN/ePY8lMNEWGAKyzOpIaE6IlDLFsxTq4i+/jgp29QaWwQ+rglPxu7GyrQ1Om8ixDS5IoZU40bdFRTOtD1X7E+YvIkrOIOn1nvjH+njKTZGl5SuA3F93S6TNnkT2gxOsnGq2FbScWJffopa0AuwK+t6VynWb6A3i2bavNRpm5YbF8xRnfdVepVnN1uJ1u06wTQ/gZdcuB5yEq/mRfLP+2V08T9s8tYyBmzV2mX9V5xEgYgi+p8fASt5Ixr8POOBI+MM/ZyBmfwacghgybYLNry30pHmhiebbP5eukMkv8g8OxedtOvZTzeCWBY5Hw2ipb4mMaVO5rJYuQ1LReGze7NrsMtP6qFxLJ7Pbh4JjaVdeQz2i9ho527nFde9i2bR+88pZUi4rGyjX1Yq1bZ4Uk4Tgwu6P1yVe0IjbG8m1aThGGWCfBbaHQKmqlkK/EonkkEWgqNeZqLOe5EX5OodVI5EnzGKT2phw9JE+3UK/+F2JOsyp/7SZ+t1X77k5H7vYwZ8GP+D9xi1QQ96u0V5Jq8s/EWVC0eHWXXZ2Bteu2IIm7j3qjp/aaU01SyIRK6J4D6SW7vHDB/mEsZ3Hz9h106twPgUXKI5ncgwqARZ/29W4rxjiwPFN/vqOQVrdDjwHq2fTYwmnCEFyxHDN+BkL52jAJZPmiPy6185CV8X47/p1WMiiPrJJFBZbG1936YpOdU2/WuP/bfXTq0gc16rbAYgne4opXL19h3sLl6PbdEPTsOxR9Bo5QP/m60QEDx+DMmdi9cdPAIuljxx790LF7X3SSnxT+3q3XAOze/eaeSLx565ZcaxW+6TkA+UtWkcwyPzxF7wyKU1LnYs24P8QFOQpP3fGQPl2mZ/YQmdz5UbrKp2LxJuPMuQi91djDJcIY4MroqdPnZUB+xLf9hqJRq86o3aQdPv28I3p+NxjTZy/APrEmv/2mxSmugHs28bCPh5GPcPbcT1ixZj0GDx+LxhILVqvZEhVqtUB4zWZKKtX6DLXqtEGPPoPw44o1OBdxQS1tvCnEijDx+BDBdRTX9t5ig3jCxMMlxBMmHi4hnjDxcAnxhImHS4gnTDxcQjxh4uES4gnz3wZutj57Avz+UJOnj7n4pX8ZM+IJ83fFi+fAw6vAxQ3A3r7AulrAiorA0pLAgkLAvBBNFhQEFpeQ7yoB62sCh0cB1w8Dz+2fu4knzN8JXLe7ugs4MBRYVByYkAwY+29glAzzCF1GivDv0brwd37G74brn41LCMz0Ak6MlzYtV97/gZd/ADePApHv5zWe8XgDeCnW5PQcYElpIUgCYJgM+hgOvMh4kQkuCMuzHolDEl213Af8B07OEob9B5jiDhwaLj4tUv8qHn8J0KIsKhZlJTjgE0WMwXck1kSxJyTNEctjGv/AxfVRF6PMyw+cXcLtXr1IPD5IcHyOiusZKS5nqIwbx9A8jobboaUZ+0+xGv/ShL8brshwQfbIQmGZ/ZaHzOQTwdm50pD4LaOhUf8rwZEEQT/H7rVW8XgHeCbZzXxaFnFBs3yAhYWB5WWB1RK4bmwI7O4tAazEICfEg5xbDkSs1uTcCuD4TGBXN2CNlGVdEs2aLLRCysJIGybIJzourQImZ9AqszB/jhbiLJPI+pctEvy4dvY1Hu8Ad89KRrMfeCDx57NYviHzodTd+LlYov+xdFX8nZ+dsXxNvnxqwq0jwFxxSTRpRiUSZ4yYvRXVNYsTz5u/H56LtZrqJl5GH3dj7MeKC7u2Ty+kQT61wuM7YtbqaJE2o2UGUAZx6K6WSiR+ZhHwx9t723Q83jH+lHhoQZAW7xiEURmWhClW2bN8agd8qGlPZyGIZE9GUGRBHHFVc+UCR0aLOYzbQ/nxeEeI7mwVl1bm+lsShr/PL2hjGOTTaHBegqWpWbVo2miIovybCK3QtGzAli+BG0fjM6sPDS+eSmy6DVjfWIJi8Qw7JND9w85xzecPZZw9LF0Sw5Kttv8/Uz6NAb+eBn78WGvA3CCFVocWSH0n5muZZFZnJON6GLd3x8Qjjrh7QbKjKeJmQmRii5fg+FCYfh+zfKuowq/nZCyTa27IGFsaCWbPVpBPnQCfI9rbXxr8SHNJZtIYwosZuf1MX2BDPWH3VmH0m/3nCPFwgGeRwIX1wDqJP6dm0aw/JzO9AceHP/mZ1UKcwqnZQiwJM4yy9B7TMku4YfsIrXzjAq7uFNYW0UhhZqO1GFaH7J6dV8g2ALgspjGaf4Yej1jgucQXv0jmuutbmaTZRd//p2e1+jgYQs/AMVslme7T+3plEzY1sQw72MbKGvqXlpBvXMRT8Xe7e0onkmikMHfMWsyxDm9mQSiwTfzi1b0Od0PjEQOe/iaWWybu1q8kKC2sTU4ONklhWAizcPDHycTd20/bwbYGx3N+gajkhm3QU5z/US9gCfkmlriyS1JsPbaxZrS1mDMsdQMJgBleQp5O0rGFwJ3393+Y/xKgfhhPbBaSTE8r5BACUI8cWOrV2Dsyi2FV6BGuRPNI8JUdQhaZzAbZOJYzJZF5Zv95dvk2DuA76I6JT2SmZLDcXuethZ1jx0g21puSQQLrchLFt9dmz+Nbkur9lz7Qxvv+/a64cJmQ29tqeqF+qCeShHozBtee8Dtl+VOJVflOsyDRYZ/Epoan4NjRG/BMjAPIt28AkZIVbRf2j0upXTy6G7InJBrrUSGcPYzYqah9A8UCLQBunxIX9uae3vugwP9uQgsSsRg4METuuywwKYXoUhIM6oRC/djTm1moc1oc6nCVxB+3nXjd2ysh59x8UR6CP2fI5Od4OoCUeIO4eVii9OZyYd1kGivF1jcXnfDGqSDDN1MmewILxbSuqgrskQDvp3WSOp7XzOZfxRLRGj+T2X7/FwlUJQHYLzN7jQShiySum6pbEArvm/fvyqQzkox5hYR49v+Fj11cEWtOYhoJDNs4YvsfWsyQEm8B7MiqWnIjQhx2wlWLYy1UIGcP2+LPsfS5EnRPSSNxVLi2wHREzOi5eeLSJGv4NULcmph1F86qvhFwn+2JZCH3fpbAXuKGCInPjo7RFsyWy6yfnkn6nVQGSPRiTAh1PyK8T1cmF3VKi8A2ZgdKaDDF/qJcdNjSTKvP63KCLwjW9pWigZR6i7gsAdXKenJjunmlYly1OPaEyuKsMCwRb5Y3bqw9TJWBmROgn1WtqG3jb26hpffHp0sAKbPwl61atnbjkLiEMzLIYrEeXLKSy2IRZPC5sHX7JHDtgBBSiPDTGuCUuMqDQtLtEnetlfZp/ZaGySwP0mK6cf/W+sN+sX8GMdhv9j8uk4jtUWb5yUQZJySNxXuAn8iEmi31STr2aYxMwMsy0WOAlHzLUOdM9wEbmgpZ3DQlUnFxtTr2hGRku2YikagcNMM6UUHqQJHM8vFCZG6wTUgsIgqbKLN/glmS6Z/JdxMSSVnJ7liPFo5b/2ayGsTgZ2/j/jioBlEWyUQ4Pi1GaxAtIiRtZp/ZT47JAXGRTkBKvkPcPgrs7iMzMGuUi6Ei3oTVcVaoIEN4bVfFXJ9i7xpvUl7rSQi76hPg4qq4u1puLvOcE9smWTaKa3oTb9F8a6AJPTlTOl1elC4zmJ3mzH8XA/ChC3VAC0WS0JrMKygxUBdxm2edHtQYwUP/Y8TK/iDtr2siBHT+kJPUeM/giTHGFrN95Sb0IJnMp+LepeV5X2LcI10Z752nHCenllnfGrgg1oRHMd80GMONFje8Rcjywrn/xGZAeviBgP74ym4tcp8vKTRjBFoeKtJwBdbK/qsK74X3ZGQ5tCSz/CV4riuDuVg7xPY2QZLE8rEi6ekHCC7SXd6kLWQtLiWzUIJP7qYaZpom295AfMjCPhvxiMpMZIbPyQvskpju4moZwLdMkjcE6fkHDm6YRV6XmbdEzHRzyRBKagtdVDxnJweBg2EOSO0N2LsQ4/rsC/tE68g+0lJOcgcWhkrMUF9L7e9GyMT46x39kDv5i4EBGpfSfxIC7R8ErGmobWSqBbF/a4NEK2RYIyPN5SByUOMSFxl1SQqDEIbVoCj3KX1gGj4tDbCylvSR2xvzgVsSaMbhn5x/KJA7/IuDiQMPD3GhjUvuRycDmz+XwaoKLBFrNCdQBi+LRigOKk+dccZz5hsDTSG5zGL+jsI6rMt63G2fmlFzKYvFanDRblMD4PAYbUGQy//P7mvbAX8zyN3/jUFrxC0CHlm8JtnYhR+1zcxT04RYoyVGEgvFB7529gC2dpCAu73I15ps76p9vq8fcGQEcGKStvXwkwSlfDz1znng0a9/C6vhPID/By1d6wMBR2fzAAAAAElFTkSuQmCC;" vertex="1" parent="1">
          <mxGeometry x="201" y="53" width="31.66" height="19" as="geometry" />
        </mxCell>
      </root>
    </mxGraphModel>
  </diagram>
</mxfile>
